<svg xmlns="http://www.w3.org/2000/svg" id="Informacion" viewBox="0 0 500 171.08"><defs><style>.cls-1{fill:#ffefd2}</style></defs><path d="M352.11 141.68c-6.2 6.23-15.19 9.24-25.81 9.24-16.73 0-29.11-14.01-50.55-14.01-1.34 0-2.64.05-3.92.14 7.82-5.15 14.83-14.52 18.96-28.28l30.1-101.21h-.83c-4.86 11.49-16.05 15.15-32.54 15.15l-.23.87c5.52-.28 9.38 5.91 6.34 17.95l-19.95 67.23c-3.98 13.25-6.98 32.17-23.16 32.17l-.26.87h3.04c27.19 0 35.15 19.42 65.5 19.42 25.04 0 33.72-19.42 33.72-19.42l-.41-.13ZM209.44 17.96h-61.37l-.23.87c5.82-.29 14.3 6.6 10.29 19.96l-24.4 81.27c-4.48 14.91-9.29 20.89-19.78 20.89l-2.37.87h49.12l.26-.87c-10.88 0-13.2-10.6-8.76-25.39l14.52-48.35s.02.01.03.02c.37 1.63 8.9 39.26 12.94 55.22 2.47 9.77 7.69 19.36 17.32 19.36h18.2v-.14c-17.02 0-20.35-36.64-28.11-54.31 17.66-1.74 36.9-19.65 42.02-36.71 4.19-13.94 2.23-32.71-19.68-32.71Zm1.42 47.43c-2.68 8.93-11.18 15.28-15.39 15.28-18.8 0-27.48-17.69-23.83-29.85l4.84-16.1c2.19-7.29 8.02-14.63 14.93-14.77h6.68c13.89 0 20.94 18.21 12.77 45.44Zm243.22-50.1c-29.39 0-50.01 29.39-56.9 53.86-10.35 36.76 3.4 74.77 30.74 74.77 22.64 0 45.02-22.27 52.94-48.93 14.89-50.11-1.16-79.7-26.79-79.7Zm6.76 72.94c-12.69 41.04-23.5 53.69-34.72 53.69-17.4 0-17.4-40.35-7.51-73.09 9.88-32.74 23-51.6 36.36-51.6 19.74 0 14.74 42.29 5.86 71Z" class="cls-1"/><path d="M139.79 13.34h-6.93L72.71 80.85c-5.16-1.4-10.8-2.44-17.49-2.44-20.31 0-32.41 11.92-32.41 11.92l1.24-.25c2.87-.57 5.68-.93 8.44-.93 10.28 0 19.57 2.41 28.4 4.96L45.04 111.9c-20.39 22.83-31.7 29.04-39.56 29.04l-.22.87h42.09l.15-.49.11-.38c-13.1-.41-13.98-10.37-2.03-23.84L65 95.31c8.43 2.46 16.51 4.71 24.73 4.71 3.3 0 6.24-.18 8.9-.51l-5.56 20.73c-3.91 14.46-10.48 20.7-21.87 20.7l-.23.87h48.44l-1.09-.87c-10.32 0-10.77-7.18-7.01-21.27L139.8 13.33ZM76.8 82.05l37.87-42.5-12.98 48.46c-9.23-.34-16.62-3.39-24.89-5.96Zm251.54-64.09-.23.87c5.82-.29 14.3 6.6 10.29 19.96l-23.26 77.49c-4.67 15.92-12.65 25.06-23.16 25.06l-.13.49h99.69l-16.51-95.57h-1.04c.84 9.34-.45 27.55-28.39 27.55h-.57l10.37-34.53c3.42-11.05 11.33-20.45 22.58-20.45h.53c6.84 0 17.46 8.02 11.05 40.61h.95L405 18.83v-.87h-76.65Zm28.95 56.71c16.94 0 23.08 10.49 25.28 23.34 4.8 27.99-10.51 42.93-29.13 42.93-20.98 0-23.42-17.11-16.38-40.57l7.71-25.7h12.53Zm-73.2-56.71h-45.45l-.23.87c5.82-.29 15.16 3.69 11.16 17.05l-24.12 80.39c-4.67 15.92-12.65 25.06-23.16 25.06l-.13.49h53.63l.15-.92h-8.39c-6.46-.59-10.23-7.03-3.54-29.31l23.29-77.53c3.42-11.05 8.24-15.23 16.69-15.23l.23-.87h-.12Z" class="cls-1"/></svg>