<svg xmlns="http://www.w3.org/2000/svg" data-name="Texto principal" viewBox="0 0 301.22 252.61"><path d="m191.82 179.68 3.34-11.12c12.84 4.3 26.21 6.89 40.12 6.89 29.37 0 49.15-11.35 58.24-20.88l-.91-1.03c-9.07 8.12-29.7 14.92-42.88 14.92-16.27 0-32.52-7.53-49.06-18.24l26.54-88.37 5.12-17.05h-1.26c-5.6 18.7-26.76 28.42-53 28.61l17.75-66.28h-9.61l-73.52 82.52c-14.28-6.99-29.05-11.5-44.48-11.5-48.62 0-60.5 27.19-60.5 43.15 0 12.89 10.93 25.9 30.06 25.9 14.12 0 29.77-9.68 40.19-18.55l-13.68 15.36c-28.31 31.69-44.02 40.32-54.93 40.32l-.31 1.21h58.44l.2-.68.16-.53c-18.19-.57-19.41-14.4-2.81-33.11l34.88-39.14c11.35 7.87 23.32 16.71 35.95 25.24l-4.9 18.29v-.02c-5.42 20.08-14.56 28.74-30.36 28.74l-.32 1.21h66.07c-5.36 17.65-13.05 38.82-33.22 38.82l-.36 1.21h12.07c37.76 0 50.56 19.94 92.71 19.94 30.63 0 41.13-25.27 41.13-25.27l-.57-.19c-8.38 8.18-14.6 11.02-29.33 11.02-26.04 0-37.09-16.17-64.3-16.17-5.51 0-10.67.57-15.36 1.44 9.39-7.52 17.66-19.68 22.75-36.66Zm-7.89-52.84.03-.08-2.9 9.67c-5.46-4.07-10.96-8.28-16.51-12.51l13.19-49.25c15.34.58 16.4 18.19 6.19 52.17Zm-95.11-10.41-.13-.05c-.3.42-.61.84-.93 1.25l-2.89 3.25c-6.83 6.67-17.36 10.91-32.06 10.91-19.59 0-37.62-11.41-37.62-23.69 0-11.32 13.31-21.46 28.75-21.46s32.58 9.55 51.5 22.38l-6.61 7.42Zm28.79-24.26 43.35-48.65-17.39 64.9c-8.49-5.97-17.13-11.55-25.96-16.25Zm50.45 87.51c-.45 1.5-.91 3.05-1.39 4.63-14.18-.07-15.61-10.04-10.41-29.52l1.04-3.88c5.46 3.19 11.03 6.2 16.71 8.95l-5.95 19.82Z" style="fill:#ffefd2"/></svg>